<?xml version="1.0" encoding="utf-8"?>
<!-- Generator: Adobe Illustrator 22.0.1, SVG Export Plug-In . SVG Version: 6.00 Build 0)  -->
<svg version="1.1" id="Layer_1" xmlns="http://www.w3.org/2000/svg" xmlns:xlink="http://www.w3.org/1999/xlink" x="0px" y="0px"
	 viewBox="0 0 325.1 326.1" style="enable-background:new 0 0 325.1 326.1;" xml:space="preserve">
<style type="text/css">
	.st0{clip-path:url(#SVGID_2_);}
	.st1{fill:#102443;}
</style>
<title>Ninja</title>
<g>
	<defs>
		<path id="SVGID_1_" d="M162.5,325.1C72.9,325.1,0,252.2,0,162.6S72.9,0,162.5,0s162.5,72.9,162.5,162.6S252.2,325.1,162.5,325.1z"
			/>
	</defs>
	<clipPath id="SVGID_2_">
		<use xlink:href="#SVGID_1_"  style="overflow:visible;"/>
	</clipPath>
	<g class="st0">
		<path class="st1" d="M284,204.9c-4.1-3.3-38.4-15.8-58.7-25.7S200,162.4,200,162.4s0.2,13.6-0.9,19.7c-1.8,9.5-5.9,26.1-7.8,42
			c-5.7,47.6-22.5,92.3-26.8,102.1h127.8C296.2,257,288.1,208.2,284,204.9z M246.3,248.3h-35l1.3-5.3l22.7-1l11-2.1L246.3,248.3z"/>
		<path class="st1" d="M185.5,169.4c-2.8,0.4-5.5,1.2-8,2.5c-4.3,2.2-8.7,7.2-8.7,7.2s-3.6,0.4-4.1,0.4h-7.4
			c-2.8-3.6-6.7-6.2-11.1-7.4c-2.2-0.6-9.8-1.8-9.8-1.8l-1.9-0.2l-0.5,1.2c-0.4,0.9-0.7,1.9-0.9,2.9c-0.5,2.1-2.8,10.9-1.6,14.8
			c1.1,3.7,3,11.1,3.2,12c0.9-0.2,1.8-0.3,2.7-0.3c3.3-0.1,12-3.4,14-5.4s5.1-5.5,5.1-5.5l11.8-0.2c0,0,0.7-0.1,5.6,4
			s14.6,7.1,15.1,6.9s2.8-9.3,3.2-12s0.1-6.6-2-13s-2-5.4-2-5.4l-0.5-1L185.5,169.4z"/>
		<path class="st1" d="M126,192.7c-1.9-7.5-7.6-30.2-7.6-30.2l-8,9.3c0,0-5.8,2.5-27.4,13.3s-45.2,17.4-47.3,21.6
			s-12.5,38.2-14.1,64.8c-0.5,8.2-1,34.2-1.4,54.8h142.7l-3.7-8.5C126.8,236.6,127.8,200.1,126,192.7z"/>
		<path class="st1" d="M161.2,165.7c30.8,0,55.8-29.5,55.8-65.8S192,34,161.2,34s-55.8,29.5-55.8,65.8S130.4,165.7,161.2,165.7z
			 M111.6,101.6c0-9.2,22.2-16.6,49.6-16.6s49.6,7.4,49.6,16.6c0,4.6-5.5,5.4-14.5,8.4s-21.4,8.2-35.1,8.2
			c-14.3,0-27.2-5.4-36.2-8.6C116.7,106.6,111.6,106,111.6,101.6z"/>
		<path id="eye1" class="st1" d="M139.5,94.4c-3.9,0-7.1,3.2-7.1,7.1l0,0c0,3.9,3.2,6.7,7.1,6.7s7.1-2.8,7.1-6.7
			C146.7,97.6,143.5,94.4,139.5,94.4L139.5,94.4z"/>
		<path class="st1" d="M183,108.3c3.9,0,7.1-2.8,7.1-6.7c0-3.9-3.2-7.1-7.1-7.1s-7.1,3.2-7.1,7.1C175.8,105.5,179,108.3,183,108.3z"
			/>
		<path class="st1" d="M186.7,309.5"/>
	</g>
</g>
<path class="st1" d="M162.5,325.1C72.9,325.1,0,252.2,0,162.6S72.9,0,162.5,0s162.5,72.9,162.5,162.6S252.2,325.1,162.5,325.1z
	 M162.5,8.4C77.5,8.4,8.3,77.6,8.3,162.6s69.2,154.2,154.2,154.2s154.2-69.2,154.2-154.2S247.6,8.4,162.5,8.4z"/>
</svg>
